<svg version="1.1" xmlns="http://www.w3.org/2000/svg" viewBox="0 0 1959.9774576822906 1431.8724975585938" width="1959.9774576822906" height="1431.8724975585938">
  <!-- svg-source:excalidraw -->
  
  <defs>
    <style>
      @font-face {
        font-family: "Virgil";
        src: url("https://excalidraw.com/Virgil.woff2");
      }
      @font-face {
        font-family: "Cascadia";
        src: url("https://excalidraw.com/Cascadia.woff2");
      }
    </style>
  </defs>
  <rect x="0" y="0" width="1959.9774576822906" height="1431.8724975585938" fill="#ffffff"></rect><g transform="translate(461.81280517578125 10) rotate(0 93.065673828125 174.4981384277344)"><text x="0" y="243.9962768554688" font-family="Virgil, Segoe UI Emoji" font-size="279.197021484375px" fill="#1864ab" text-anchor="start" style="white-space: pre;" direction="ltr">A</text></g><g transform="translate(174.03228759765625 436.16293569711536) rotate(0 65.35771179199224 113.1191165630635)"><text x="0" y="157.238233126127" font-family="Virgil, Segoe UI Emoji" font-size="180.99058650090163px" fill="#1864ab" text-anchor="start" style="white-space: pre;" direction="ltr">B</text></g><g transform="translate(540.0907897949219 371.34173583984386) rotate(0 53.21112060546875 133.0278015136719)"><text x="0" y="185.0556030273438" font-family="Virgil, Segoe UI Emoji" font-size="212.84448242187494px" fill="#1864ab" text-anchor="start" style="white-space: pre;" direction="ltr">c</text></g><g transform="translate(935.5929260253907 350.79883575439476) rotate(0 42.90199279785156 96.52948379516596)"><text x="0" y="134.05896759033192" font-family="Virgil, Segoe UI Emoji" font-size="154.4471740722655px" fill="#1864ab" text-anchor="start" style="white-space: pre;" direction="ltr">d</text></g><g transform="translate(10 704.7131958007815) rotate(0 36.65435791015625 82.47230529785156)"><text x="0" y="114.94461059570312" font-family="Virgil, Segoe UI Emoji" font-size="131.95568847656247px" fill="#1864ab" text-anchor="start" style="white-space: pre;" direction="ltr">e</text></g><g transform="translate(299.0375061035156 692.8347473144534) rotate(0 42.878021240234375 107.1950531005859)"><text x="0" y="149.3901062011718" font-family="Virgil, Segoe UI Emoji" font-size="171.51208496093747px" fill="#1864ab" text-anchor="start" style="white-space: pre;" direction="ltr">f</text></g><g transform="translate(141.427978515625 918.8713607788088) rotate(0 44.711212158203125 251.50056838989255)"><text x="0" y="352.0011367797851" font-family="Virgil, Segoe UI Emoji" font-size="402.400909423828px" fill="#1864ab" text-anchor="start" style="white-space: pre;" direction="ltr">i</text></g><g transform="translate(395.7106018066406 901.3877792358401) rotate(0 66.15586853027344 248.08450698852542)"><text x="0" y="347.16901397705084" font-family="Virgil, Segoe UI Emoji" font-size="396.9352111816408px" fill="#1864ab" text-anchor="start" style="white-space: pre;" direction="ltr">j</text></g><g transform="translate(552.9049987792969 671.1492462158204) rotate(0 38.95002746582031 97.3750686645508)"><text x="0" y="135.7501373291016" font-family="Virgil, Segoe UI Emoji" font-size="155.8001098632812px" fill="#1864ab" text-anchor="start" style="white-space: pre;" direction="ltr">g</text></g><g transform="translate(1120.2726745605469 677.2283630371096) rotate(0 45.815185546875 114.53796386718744)"><text x="0" y="159.0759277343749" font-family="Virgil, Segoe UI Emoji" font-size="183.26074218749997px" fill="#1864ab" text-anchor="start" style="white-space: pre;" direction="ltr">h</text></g><g transform="translate(774.5744934082031 951.3032836914062) rotate(0 37.11538696289068 92.78846740722668)"><text x="0" y="128.57693481445338" font-family="Virgil, Segoe UI Emoji" font-size="148.46154785156276px" fill="#1864ab" text-anchor="start" style="white-space: pre;" direction="ltr">k</text></g><g><g transform="translate(625.98046875 203.35770670572924) rotate(0 155.40452068001042 115.38741779045668)"><path d="M-1.0500630363821983 0.407170794904232 C50.80881323963405 39.08575459172328, 259.7482337966562 192.9029194737474, 311.8591043964029 231.19950406402347 M0.5995151401776821 -0.4246684831101448 C52.32098460954616 37.949951618838426, 259.63595985722736 190.63758930368036, 311.4053153644224 229.22914133044887" stroke="#1864ab" stroke-width="4" fill="none"></path></g></g><g><g transform="translate(600.8629760742188 241.56815592447924) rotate(0 -5.555236685215505 117.34932383732404)"><path d="M0.01676321178674689 0.3769961580634118 C-1.856815956532955 39.431030089159805, -8.76502723544836 196.340657129387, -10.799502705037593 235.16933247894045 M-1.4335748313646763 -0.4706848042923957 C-3.4004626007657497 38.173866327929616, -9.188576647518202 194.36698710603326, -11.127236582217737 233.46734711620022" stroke="#1864ab" stroke-width="4" fill="none"></path></g></g><g><g transform="translate(494.25714111328125 269.1992289225261) rotate(0 -110.57498024444095 105.56971194704528)"><path d="M-0.9201710477471352 -0.776645801961422 C-37.82604261388381 34.24512516806522, -184.42788814852634 175.15188225259382, -221.488024546206 210.45596981197593 M0.7976004228461533 1.4300112066697328 C-36.18025467351389 36.6147947644225, -185.00804664140256 177.33127262473414, -221.94756091172806 211.91606969605198" stroke="#1864ab" stroke-width="4" fill="none"></path></g></g><g><g transform="translate(183.68890380859375 597.6478678385417) rotate(0 -58.918232077299635 86.67336649197154)"><path d="M1.1707937255501746 0.18392603248357764 C-18.562205201884108 29.085530255734916, -98.34630657682817 144.29938194602727, -118.42330727428198 173.09154555648564 M0.326321702124551 -0.7651167458016426 C-19.501801088231925 28.282500360338016, -98.92812708465073 145.04164884331635, -119.00725788014941 174.1118497297447" stroke="#1864ab" stroke-width="4" fill="none"></path></g><g transform="translate(183.68890380859375 597.6478678385417) rotate(0 -58.918232077299635 86.67336649197154)"><path d="M-111.23979713226318 146.21026826588331 C-115.48755284914446 153.49249173510125, -117.96781920135658 161.27475974030554, -117.70949950206094 174.20651843848637 M-111.33157028088927 144.22861093593656 C-114.86002710445443 155.84125992329075, -117.82409689358234 167.38310151858863, -118.01300396534614 173.74257119822315" stroke="#1864ab" stroke-width="4" fill="none"></path></g><g transform="translate(183.68890380859375 597.6478678385417) rotate(0 -58.918232077299635 86.67336649197154)"><path d="M-94.30755899279083 157.80420262717922 C-103.56853637042768 161.79790423015416, -111.09275601777884 166.12644905100532, -117.70949950206094 174.20651843848637 M-94.39933214141692 155.82254529723247 C-104.41247482294182 162.9457115854918, -113.9405296333855 169.99302559035527, -118.01300396534614 173.74257119822315" stroke="#1864ab" stroke-width="4" fill="none"></path></g></g><g><g transform="translate(255.73663330078125 593.473368326823) rotate(0 32.144021822512144 77.73177084939088)"><path d="M-0.9567906841635704 0.35688474029302597 C9.745913411676883 26.214127086102962, 54.23051676899195 130.21411616653202, 65.24483432918787 155.964896415174 M0.7417554773110897 -0.5013547163922341 C11.194973565759136 24.896824790565297, 53.695997359277676 127.91768984916621, 64.28802067500538 153.95299537274056" stroke="#1864ab" stroke-width="4" fill="none"></path></g><g transform="translate(255.73663330078125 593.473368326823) rotate(0 32.144021822512144 77.73177084939088)"><path d="M44.6932120253789 131.73553651644613 C52.389133033420975 140.26257298720176, 58.337737403065006 148.0693902341557, 65.77901945722289 153.95521179380827 M44.70283841765399 132.4111180275562 C48.40632965180729 136.77659664591437, 53.550531904816225 143.62437265270174, 64.44961427238769 154.2375346140843" stroke="#1864ab" stroke-width="4" fill="none"></path></g><g transform="translate(255.73663330078125 593.473368326823) rotate(0 32.144021822512144 77.73177084939088)"><path d="M63.67989994917486 123.94928683702922 C64.10562317329205 135.328230191243, 62.73073013268676 146.13834003939348, 65.77901945722289 153.95521179380827 M63.689526341449955 124.62486834813929 C62.6307071660348 130.81362289278448, 63.03881173250023 139.60362490768563, 64.44961427238769 154.2375346140843" stroke="#1864ab" stroke-width="4" fill="none"></path></g></g><g><g transform="translate(332.5838623046875 839.7787577311199) rotate(0 -4.684182141721266 3.7309229275723794)"><path d="M0.7927580371499061 -0.7767887368798256 C-0.8808480883638063 0.49938264538844424, -8.597176534434158 5.6787866021196045, -10.161122320592403 7.169199012219906 M-0.2501827226858586 1.4297932309191674 C-1.5636529683849463 2.8750191449405005, -6.5803111613572876 6.887210395761456, -8.062954695401713 8.23863459202461" stroke="#1864ab" stroke-width="4" fill="none"></path></g></g><g><g transform="translate(320.8802185058594 850.4467875162761) rotate(0 -59.17299864987842 103.34744987492917)"><path d="M-0.8914088979363441 0.40108771473169336 C-20.477707506716254 35.117414857447145, -98.6886849179864 172.77268166691064, -118.29458038955927 207.12884493023157 M0.8414627013076097 -0.43394518037326635 C-18.82569387312047 34.067522159321236, -99.15401290501468 171.39541982452386, -119.18746000106447 205.53711796293967" stroke="#1864ab" stroke-width="4" fill="none"></path></g></g><g><g transform="translate(346.7453918457031 844.8611551920574) rotate(0 42.689532565535046 102.63473918574863)"><path d="M-0.6209454998373986 -0.06022265106439595 C13.4016184185942 33.97497684806586, 69.57520696471134 171.07685801833867, 83.60704059749841 205.37043917030095 M1.2539193834085016 -1.1374434882123023 C15.721527934096132 33.5271996417921, 72.4646710716902 171.7687659943383, 86.0000106309075 206.40692185970954" stroke="#1864ab" stroke-width="4" fill="none"></path></g></g><g><g transform="translate(601.7661437988281 580.8070475260417) rotate(0 -5.9852049588551495 89.17502013701015)"><path d="M-0.1768038734793662 -0.0997767224907875 C-2.195308985809485 29.760806789497536, -9.03674576928218 148.44927497555813, -11.096420620381831 178.60539834350348 M-1.7287646363954992 -1.1977634471375496 C-3.952259410598005 28.81685182286116, -10.390922112542514 149.5030094560267, -11.793606044230982 179.54780372115783" stroke="#1864ab" stroke-width="4" fill="none"></path></g></g><g><g transform="translate(985.2376708984376 495.62699381510424) rotate(0 70.40685532065572 126.0833261955297)"><path d="M1.0477349504828453 0.013794757425785065 C24.313366069893043 42.040274081130825, 117.73614822079736 211.3443374807636, 140.6750535711646 253.19121933132413 M0.13865707014687367 -1.0245669402647763 C23.24674542471456 41.205110670629274, 116.80411809915988 209.45833591660175, 140.29754435007462 251.60360809574837" stroke="#1864ab" stroke-width="4" fill="none"></path></g></g><g><g transform="translate(596.0514221191406 865.446024576823) rotate(0 85.41858825942967 65.16773989099076)"><path d="M0.6699763789772988 0.4297896131873131 C29.38805624792973 22.121846412122252, 143.1203962182005 107.73936173766853, 171.27460127025842 129.4301322206855 M-0.437424751399085 -0.39017478522844606 C28.2808597382127 21.529125861255455, 141.9911552551606 109.22883483770303, 170.73312534314582 130.72565456721" stroke="#1864ab" stroke-width="4" fill="none"></path></g></g><g transform="translate(1115.2996215820312 79.07721964518237) rotate(0 417.3389180501297 72.79167175292969)"><text x="0" y="100.58334350585935" font-family="Virgil, Segoe UI Emoji" font-size="116.4666748046874px" fill="#1864ab" text-anchor="start" style="white-space: pre;" direction="ltr">Tine = O(v+E)</text></g><g transform="translate(1142.917724609375 315.88630167643237) rotate(0 373.5 74)"><text x="0" y="103" font-family="Virgil, Segoe UI Emoji" font-size="116.4666748046874px" fill="#1864ab" text-anchor="start" style="white-space: pre;" direction="ltr">Space = O(V)</text></g></svg>